<?xml version="1.0" encoding="UTF-8"?>
<svg width="65px" height="65px" viewBox="0 0 65 65" version="1.1" xmlns="http://www.w3.org/2000/svg" xmlns:xlink="http://www.w3.org/1999/xlink">
    <!-- Generator: Sketch 60.1 (88133) - https://sketch.com -->
    <title>str-chevron-right-1px</title>
    <desc>Created with Sketch.</desc>
    <g id="str-chevron-right-1px" stroke="none" stroke-width="1" fill="none" fill-rule="evenodd">
        <path d="M23.4110865,49.8675645 C23.6572559,50.1298603 24.0009545,50.278651 24.3606745,50.278651 C24.7203945,50.278651 25.0640931,50.1298603 25.3102625,49.8675645 L41.5889135,33.5889135 C41.8512093,33.3427441 42,32.9990455 42,32.6393255 C42,32.2796055 41.8512093,31.9359069 41.5889135,31.6897375 L25.3102625,15.4110865 C25.0640931,15.1487907 24.7203945,15 24.3606745,15 C24.0009545,15 23.6572559,15.1487907 23.4110865,15.4110865 C23.1487907,15.6572559 23,16.0009545 23,16.3606745 C23,16.7203945 23.1487907,17.0640931 23.4110865,17.3102625 L38.7130185,32.6393255 L23.4110865,47.9683885 C23.1487907,48.2145579 23,48.5582565 23,48.9179765 C23,49.2776965 23.1487907,49.6213951 23.4110865,49.8675645 Z" id="🌈-Color" fill="#444444"></path>
    </g>
</svg>