<?xml version="1.0" encoding="UTF-8"?>
<svg width="65px" height="65px" viewBox="0 0 65 65" version="1.1" xmlns="http://www.w3.org/2000/svg" xmlns:xlink="http://www.w3.org/1999/xlink">
    <!-- Generator: Sketch 60.1 (88133) - https://sketch.com -->
    <title>str-chevron-up-1px</title>
    <desc>Created with Sketch.</desc>
    <g id="str-chevron-up-1px" stroke="none" stroke-width="1" fill="none" fill-rule="evenodd">
        <path d="M33.9252371,26.3810693 C33.4068791,25.8729769 32.5772885,25.8729769 32.0589305,26.3810693 L21.3943217,37.0456782 C21.1419535,37.2959853 21,37.6367141 21,37.9921622 C21,38.3476103 21.1419535,38.6883391 21.3943217,38.9386462 C21.6362306,39.1964024 21.9739807,39.342618 22.327475,39.342618 C22.6809692,39.342618 23.0187194,39.1964024 23.2606282,38.9386462 L32.9920838,29.2071907 L42.7235393,38.9386462 C42.9679538,39.1923069 43.3044457,39.3365177 43.6566926,39.3385691 C44.0169793,39.3376865 44.3621877,39.1938496 44.6165074,38.9386462 C45.1278309,38.4112449 45.1278309,37.5730796 44.6165074,37.0456782 L33.9252371,26.3810693 Z" id="🌈-Color" fill="#444444"></path>
    </g>
</svg>