<?xml version="1.0" encoding="UTF-8"?>
<svg width="65px" height="65px" viewBox="0 0 65 65" version="1.1" xmlns="http://www.w3.org/2000/svg" xmlns:xlink="http://www.w3.org/1999/xlink">
    <!-- Generator: Sketch 60.1 (88133) - https://sketch.com -->
    <title>str-chevron-down</title>
    <desc>Created with Sketch.</desc>
    <g id="str-chevron-down" stroke="none" stroke-width="1" fill="none" fill-rule="evenodd">
        <path d="M32.3008097,40.9584416 C31.590005,40.9554936 30.9099555,40.6684262 30.4123941,40.1612898 L19.773433,29.5326002 C18.742189,28.4962035 18.742189,26.8223839 19.773433,25.7859871 C20.2728434,25.2829508 20.952662,25 21.6618486,25 C22.3710352,25 23.0508538,25.2829508 23.5502642,25.7859871 L32.3008097,34.5280843 L41.0513551,25.7859871 C41.5507655,25.2829508 42.2305841,25 42.9397707,25 C43.6489573,25 44.3287759,25.2829508 44.8281863,25.7859871 C45.8594303,26.8223839 45.8594303,28.4962035 44.8281863,29.5326002 L34.1892252,40.1612898 C33.6916638,40.6684262 33.0116143,40.9554936 32.3008097,40.9584416 L32.3008097,40.9584416 Z" id="Path" fill="#444444"></path>
    </g>
</svg>