<?xml version="1.0" encoding="UTF-8"?>
<svg width="65px" height="65px" viewBox="0 0 65 65" version="1.1" xmlns="http://www.w3.org/2000/svg" xmlns:xlink="http://www.w3.org/1999/xlink">
    <!-- Generator: Sketch 60.1 (88133) - https://sketch.com -->
    <title>str-chevron-left-1px</title>
    <desc>Created with Sketch.</desc>
    <g id="str-chevron-left-1px" stroke="none" stroke-width="1" fill="none" fill-rule="evenodd">
        <path d="M41.5889135,15.4110865 C41.3427441,15.1487907 40.9990455,15 40.6393255,15 C40.2796055,15 39.9359069,15.1487907 39.6897375,15.4110865 L23.4110865,31.6897375 C23.1487907,31.9359069 23,32.2796055 23,32.6393255 C23,32.9990455 23.1487907,33.3427441 23.4110865,33.5889135 L39.6897375,49.8675645 C39.9359069,50.1298603 40.2796055,50.278651 40.6393255,50.278651 C40.9990455,50.278651 41.3427441,50.1298603 41.5889135,49.8675645 C41.8512093,49.6213951 42,49.2776965 42,48.9179765 C42,48.5582565 41.8512093,48.2145579 41.5889135,47.9683885 L26.2869815,32.6393255 L41.5889135,17.3102625 C41.8512093,17.0640931 42,16.7203945 42,16.3606745 C42,16.0009545 41.8512093,15.6572559 41.5889135,15.4110865 Z" id="🌈-Color" fill="#444444"></path>
    </g>
</svg>