<?xml version="1.0" encoding="UTF-8"?>
<svg width="65px" height="65px" viewBox="0 0 65 65" version="1.1" xmlns="http://www.w3.org/2000/svg" xmlns:xlink="http://www.w3.org/1999/xlink">
    <!-- Generator: Sketch 60.1 (88133) - https://sketch.com -->
    <title>str-chevron-down-1px</title>
    <desc>Created with Sketch.</desc>
    <g id="str-chevron-down-1px" stroke="none" stroke-width="1" fill="none" fill-rule="evenodd">
        <path d="M32.0747629,38.9615487 C32.5931209,39.4696411 33.4227115,39.4696411 33.9410695,38.9615487 L44.6056783,28.2969398 C44.8580465,28.0466327 45,27.7059039 45,27.3504558 C45,26.9950077 44.8580465,26.6542789 44.6056783,26.4039718 C44.3637694,26.1462156 44.0260193,26 43.672525,26 C43.3190308,26 42.9812806,26.1462156 42.7393718,26.4039718 L33.0079162,36.1354273 L23.2764607,26.4039718 C23.0320462,26.1503112 22.6955543,26.0061003 22.3433074,26.0040489 C21.9830207,26.0049315 21.6378123,26.1487684 21.3834926,26.4039718 C20.8721691,26.9313731 20.8721691,27.7695385 21.3834926,28.2969398 L32.0747629,38.9615487 Z" id="🌈-Color" fill="#444444"></path>
    </g>
</svg>