<?xml version="1.0" encoding="UTF-8"?>
<svg width="65px" height="65px" viewBox="0 0 65 65" version="1.1" xmlns="http://www.w3.org/2000/svg" xmlns:xlink="http://www.w3.org/1999/xlink">
    <!-- Generator: Sketch 60.1 (88133) - https://sketch.com -->
    <title>str-circle-attention</title>
    <desc>Created with Sketch.</desc>
    <g id="str-circle-attention" stroke="none" stroke-width="1" fill="none" fill-rule="evenodd">
        <path d="M32.5974026,6 C47.2636365,6 59.1948052,17.9311687 59.1948052,32.5974026 C59.1948052,47.2636365 47.2636365,59.1948052 32.5974026,59.1948052 C17.9311687,59.1948052 6,47.2636365 6,32.5974026 C6,17.9311687 17.9311687,6 32.5974026,6 Z M32.5974026,8.65974026 C19.3987014,8.65974026 8.65974026,19.3987014 8.65974026,32.5974026 C8.65974026,45.7961038 19.3987014,56.5350649 32.5974026,56.5350649 C45.7961038,56.5350649 56.5350649,45.7961038 56.5350649,32.5974026 C56.5350649,19.3987014 45.7961038,8.65974026 32.5974026,8.65974026 Z M32.5974026,43.2363636 C33.3324676,43.2363636 33.9272727,43.8311688 33.9272727,44.5662338 L33.9272727,44.5662338 L33.9272727,47.225974 C33.9272727,47.961039 33.3324676,48.5558442 32.5974026,48.5558442 C31.8623376,48.5558442 31.2675325,47.961039 31.2675325,47.225974 L31.2675325,47.225974 L31.2675325,44.5662338 C31.2675325,43.8311688 31.8623376,43.2363636 32.5974026,43.2363636 Z M32.5974026,16.638961 C33.3324676,16.638961 33.9272727,17.2337662 33.9272727,17.9688312 L33.9272727,17.9688312 L33.9272727,39.2467532 C33.9272727,39.9818182 33.3324676,40.5766234 32.5974026,40.5766234 C31.8623376,40.5766234 31.2675325,39.9818182 31.2675325,39.2467532 L31.2675325,39.2467532 L31.2675325,17.9688312 C31.2675325,17.2337662 31.8623376,16.638961 32.5974026,16.638961 Z" id="Combined-Shape" fill="#444444"></path>
    </g>
</svg>