<?xml version="1.0" encoding="UTF-8"?>
<svg width="65px" height="65px" viewBox="0 0 65 65" version="1.1" xmlns="http://www.w3.org/2000/svg" xmlns:xlink="http://www.w3.org/1999/xlink">
    <!-- Generator: Sketch 60.1 (88133) - https://sketch.com -->
    <title>str-circle-block</title>
    <desc>Created with Sketch.</desc>
    <g id="str-circle-block" stroke="none" stroke-width="1" fill="none" fill-rule="evenodd">
        <path d="M32.5974026,6 C47.2875267,6 59.1948052,17.9072785 59.1948052,32.5974026 C59.1948052,47.2875267 47.2875267,59.1948052 32.5974026,59.1948052 C17.9072785,59.1948052 6,47.2875267 6,32.5974026 C6,17.9072785 17.9072785,6 32.5974026,6 Z M50.4226508,16.6192156 L15.3034021,49.1488624 C19.6609365,53.7006674 25.7979334,56.5350649 32.5974026,56.5350649 C45.8185927,56.5350649 56.5350649,45.8185927 56.5350649,32.5974026 C56.5350649,26.4567871 54.2233485,20.8564797 50.4226508,16.6192156 Z M32.5974026,8.65974026 C19.3762124,8.65974026 8.65974026,19.3762124 8.65974026,32.5974026 C8.65974026,38.0611047 10.4898822,43.0970551 13.5706234,47.1257112 L48.5379035,14.7384225 C44.3051464,10.9577831 38.7198307,8.65974026 32.5974026,8.65974026 Z" id="Combined-Shape" fill="#444444"></path>
    </g>
</svg>