<?xml version="1.0" encoding="UTF-8"?>
<svg width="65px" height="65px" viewBox="0 0 65 65" version="1.1" xmlns="http://www.w3.org/2000/svg" xmlns:xlink="http://www.w3.org/1999/xlink">
    <!-- Generator: Sketch 60.1 (88133) - https://sketch.com -->
    <title>str-calendar</title>
    <desc>Created with Sketch.</desc>
    <g id="str-calendar" stroke="none" stroke-width="1" fill="none" fill-rule="evenodd">
        <path d="M47.5678591,9 C48.3038224,9 48.8993546,9.5951765 48.8993546,10.3307004 L48.8993546,10.3307004 L48.8993546,14.3194805 L52.064257,14.3194805 C54.7168456,14.3194805 56.8753247,16.3864269 56.8753247,19.0374314 L56.8753247,19.0374314 L56.8753247,52.06713 C56.8753247,54.7181345 54.7168459,56.8753247 52.064257,56.8753247 L52.064257,56.8753247 L13.8110676,56.8753247 C11.1584791,56.8753247 9,54.7181348 9,52.06713 L9,52.06713 L9,19.0374314 C9,16.3864269 11.1584788,14.3194805 13.8110676,14.3194805 L13.8110676,14.3194805 L16.9980748,14.3194805 L16.9980748,10.3307004 C16.9980748,9.5951765 17.5936069,9 18.3295703,9 C19.0655337,9 19.6610658,9.5951765 19.6610658,10.3307004 L19.6610658,10.3307004 L19.6610658,14.3194805 L46.2363636,14.3194805 L46.2363636,10.3307004 C46.2363636,9.5951765 46.8318957,9 47.5678591,9 Z M11.6597403,27.6181818 L11.6597403,52.0737902 C11.6597403,53.2548886 12.6234013,54.2155844 13.8081451,54.2155844 L13.8081451,54.2155844 L52.0671795,54.2155844 C53.2519234,54.2155844 54.2155844,53.2548886 54.2155844,52.0737902 L54.2155844,52.0737902 L54.2155844,27.6181818 L11.6597403,27.6181818 Z M11.6597403,24.9584416 L54.2155844,24.9584416 L54.2155844,19.121015 C54.2155844,17.9399166 53.2519234,16.9792208 52.0671795,16.9792208 L52.0671795,16.9792208 L48.9017935,16.9792208 L48.9017935,21.0514821 C48.9017935,21.785293 48.3061704,22.3790834 47.5700945,22.3790834 C46.8340187,22.3790834 46.2383956,21.785293 46.2383956,21.0514821 L46.2383956,21.0514821 L46.2383956,16.9792208 L19.6590371,16.9792208 L19.6590371,21.0514821 C19.6590371,21.785293 19.063414,22.3790834 18.3273382,22.3790834 C17.5912624,22.3790834 16.9956393,21.785293 16.9956393,21.0514821 L16.9956393,21.0514821 L16.9956393,16.9792208 L13.8081451,16.9792208 C12.6234013,16.9792208 11.6597403,17.9399166 11.6597403,19.121015 L11.6597403,19.121015 L11.6597403,24.9584416 Z" id="Combined-Shape" fill="#444444"></path>
    </g>
</svg>