<?xml version="1.0" encoding="UTF-8"?>
<svg width="65px" height="65px" viewBox="0 0 65 65" version="1.1" xmlns="http://www.w3.org/2000/svg" xmlns:xlink="http://www.w3.org/1999/xlink">
    <!-- Generator: Sketch 60.1 (88133) - https://sketch.com -->
    <title>str-card</title>
    <desc>Created with Sketch.</desc>
    <g id="str-card" stroke="none" stroke-width="1" fill="none" fill-rule="evenodd">
        <path d="M53.9766233,17 C56.8545455,17 59.1948052,19.3415585 59.1948052,22.2194807 L59.1948052,43.6974027 C59.1948052,46.5753247 56.8545455,48.9168831 53.9766233,48.9168831 L11.2129869,48.9168831 C8.3376622,48.9168831 6,46.5779222 6,43.7038962 L6,22.2194804 C6,19.3415585 8.34025971,17 11.2181817,17 L53.9766233,17 Z M56.5350649,32.9584416 L8.65974026,32.9584416 L8.65974026,43.7038962 C8.65974026,45.1116882 9.8051949,46.2571429 11.2129869,46.2571429 L53.9766233,46.2571429 C55.3870131,46.2571429 56.5350649,45.109091 56.5350649,43.6974027 L56.5350649,32.9584416 Z M56.5350649,27.638961 L8.65974026,27.638961 L8.65974026,30.2987013 L56.5350649,30.2987013 L56.5350649,27.638961 Z M53.9766233,19.6597403 L11.2181819,19.6597403 C9.80779214,19.6597403 8.65974026,20.8077921 8.65974026,22.2194804 L8.65974026,24.9792208 L56.5350649,24.9792208 L56.5350649,22.2194804 C56.5350649,20.8077921 55.3870131,19.6597403 53.9766233,19.6597403 Z" id="Shape" fill="#444444" transform="translate(32.597403, 32.958442) rotate(-180.000000) translate(-32.597403, -32.958442) "></path>
    </g>
</svg>