<?xml version="1.0" encoding="UTF-8"?>
<svg width="65px" height="65px" viewBox="0 0 65 65" version="1.1" xmlns="http://www.w3.org/2000/svg" xmlns:xlink="http://www.w3.org/1999/xlink">
    <!-- Generator: Sketch 60.1 (88133) - https://sketch.com -->
    <title>str-close copy</title>
    <desc>Created with Sketch.</desc>
    <g id="str-close-copy" stroke="none" stroke-width="1" fill="none" fill-rule="evenodd">
        <path d="M49.6017921,15.4079531 C49.3574991,15.1476566 49.0164203,15 48.6594422,15 C48.3024642,15 47.9613853,15.1476566 47.7170923,15.4079531 L32.5048726,30.5932485 L17.3195772,15.4079531 C17.0668031,15.1530977 16.7227163,15.0097452 16.3637651,15.0097452 C16.0048139,15.0097452 15.6607271,15.1530977 15.4079531,15.4079531 C15.1476566,15.6522461 15,15.9933249 15,16.350303 C15,16.707281 15.1476566,17.0483599 15.4079531,17.2926529 L30.5932485,32.5048726 L15.4079531,47.690168 C15.1530977,47.9429421 15.0097452,48.2870289 15.0097452,48.6459801 C15.0097452,49.0049313 15.1530977,49.3490181 15.4079531,49.6017921 C15.6522461,49.8620886 15.9933249,50.0097452 16.350303,50.0097452 C16.707281,50.0097452 17.0483599,49.8620886 17.2926529,49.6017921 L32.5048726,34.4164967 L47.690168,49.6017921 C47.9469942,49.8595106 48.2956047,50.004765 48.6594422,50.0056564 C49.1980291,49.9980905 49.6802608,49.6702144 49.8853478,49.1721458 C50.0904349,48.6740772 49.9788932,48.1017061 49.6017921,47.7170923 L34.4164967,32.5048726 L49.6017921,17.3195772 C49.8566475,17.0668031 50,16.7227163 50,16.3637651 C50,16.0048139 49.8566475,15.6607271 49.6017921,15.4079531 Z" id="🌈-Color" fill="#444444"></path>
    </g>
</svg>