<?xml version="1.0" encoding="UTF-8"?>
<svg width="65px" height="65px" viewBox="0 0 65 65" version="1.1" xmlns="http://www.w3.org/2000/svg" xmlns:xlink="http://www.w3.org/1999/xlink">
    <!-- Generator: Sketch 60.1 (88133) - https://sketch.com -->
    <title>str-download</title>
    <desc>Created with Sketch.</desc>
    <g id="str-download" stroke="none" stroke-width="1" fill="none" fill-rule="evenodd">
        <path d="M57.8571426,40.5766234 C58.5922075,40.5766234 59.1870127,41.1703517 59.1870127,41.904086 L59.1870127,48.6476999 C59.1870127,54.4631268 54.4467531,59.1948052 48.6207791,59.1948052 L16.5662336,59.1948052 C10.7402598,59.1948052 6,54.4631268 6,48.6476999 L6,41.904086 C6,41.1703517 6.59480516,40.5766234 7.32987013,40.5766234 C8.0649351,40.5766234 8.65974026,41.1703517 8.65974026,41.904086 L8.65974026,48.6476999 C8.65974026,52.9982511 12.2077923,56.5398799 16.5662336,56.5398799 L48.6207793,56.5398799 C52.9792207,56.5398799 56.5272727,52.9982511 56.5272727,48.6476999 L56.5272727,41.904086 C56.5272727,41.1703517 57.1220776,40.5766234 57.8571426,40.5766234 Z M32.5974026,6 C33.383656,6 34.0198821,6.61843758 34.0198821,7.38270767 L34.0198821,7.38270767 L34.0198821,41.1769729 L42.138017,33.285817 C42.6936727,32.7456968 43.5938357,32.7456971 44.1494917,33.285817 C44.7051478,33.8259369 44.7051478,34.7009318 44.1494917,35.241052 L44.1494917,35.241052 L33.6048763,45.4908452 C33.4732551,45.6191237 33.3155878,45.7209026 33.1405565,45.7912868 C32.7929244,45.9310429 32.4018814,45.9310429 32.054249,45.7912868 C31.8792175,45.7209023 31.7215499,45.6191234 31.589929,45.4908449 L31.589929,45.4908449 L21.0453135,35.2410517 C20.7674854,34.9709917 20.6285714,34.617213 20.6285714,34.2634342 C20.6285714,33.9096555 20.7674857,33.5558767 21.0453135,33.2858168 C21.6009693,32.7456966 22.5011323,32.7456966 23.0567883,33.2858168 L23.0567883,33.2858168 L31.1749231,41.1769726 L31.1749231,7.38270767 C31.1749231,6.61843758 31.8111493,6 32.5974026,6 Z" id="Combined-Shape" fill="#444444"></path>
    </g>
</svg>