<?xml version="1.0" encoding="UTF-8"?>
<svg width="65px" height="65px" viewBox="0 0 65 65" version="1.1" xmlns="http://www.w3.org/2000/svg" xmlns:xlink="http://www.w3.org/1999/xlink">
    <!-- Generator: Sketch 60.1 (88133) - https://sketch.com -->
    <title>str-edit</title>
    <desc>Created with Sketch.</desc>
    <g id="str-edit" stroke="none" stroke-width="1" fill="none" fill-rule="evenodd">
        <path d="M41.2428572,12.5331171 C43.2857146,10.4902599 46.6116884,10.4876624 48.6571431,12.5331171 L48.6571431,12.5331171 L52.0207793,15.8967533 C54.0636364,17.9409092 54.0636364,21.2668833 52.0207793,23.3110392 L52.0207793,23.3110392 L45.8909092,29.4409093 L22.1662338,53.1642859 C21.9168832,53.4136366 21.5792209,53.5538964 21.2259741,53.5538964 L21.2259741,53.5538964 L12.3298701,53.5538964 C11.5948052,53.5538964 11,52.9590912 11,52.2240263 L11,52.2240263 L11,43.3279223 C11,42.9746755 11.1402598,42.6370132 11.3896105,42.3876626 L11.3896105,42.3876626 L35.1129871,18.6629872 Z M36.0532468,21.4837665 L13.6597403,43.8785717 L13.6597403,50.8941561 L20.6753246,50.8941561 L43.0701299,28.5006496 L36.0532468,21.4837665 Z M46.7766234,14.4136367 C45.7688311,13.4084418 44.1311686,13.4110393 43.1233766,14.4136367 L43.1233766,14.4136367 L37.9337661,19.6032471 L44.9506493,26.6201303 L50.1402597,21.4305198 C51.1467533,20.4240262 51.1467533,18.7837665 50.1402597,17.7772729 L50.1402597,17.7772729 Z" id="Combined-Shape" fill="#444444"></path>
    </g>
</svg>