<?xml version="1.0" encoding="UTF-8"?>
<svg width="65px" height="65px" viewBox="0 0 65 65" version="1.1" xmlns="http://www.w3.org/2000/svg" xmlns:xlink="http://www.w3.org/1999/xlink">
    <!-- Generator: Sketch 60.1 (88133) - https://sketch.com -->
    <title>str-email</title>
    <desc>Created with Sketch.</desc>
    <g id="str-email" stroke="none" stroke-width="1" fill="none" fill-rule="evenodd">
        <path d="M56.1428572,17.022078 C56.0220779,16.8897727 55.8792209,16.7896106 55.7258118,16.7183442 C53.8758117,15.047078 51.4501623,14 48.7662339,14 L16.4285713,14 C10.6779222,14 6,18.6779222 6,24.4285713 L6,40.8883117 C6,43.2907468 6.85633104,45.475974 8.23474036,47.2339285 C8.27597405,47.3071429 8.29951302,47.3868505 8.35584419,47.4532467 C8.40097413,47.5066559 8.46428579,47.5295453 8.51558447,47.574026 C10.414935,49.7959417 13.2022726,51.2363636 16.3480519,51.2363636 L48.8467532,51.2363636 C51.9875001,51.2363636 54.7711039,49.8006494 56.6704545,47.5847403 C56.7266234,47.5373376 56.7951298,47.5113636 56.8441557,47.4532467 C56.9055194,47.3810066 56.9326299,47.2948052 56.9759738,47.2146103 C58.3451299,45.4597403 59.1948052,43.2816558 59.1948052,40.8883117 L59.1948052,24.4285713 C59.1948052,21.6116883 58.0618505,19.0618506 56.2407469,17.1834415 C56.2047079,17.1308441 56.1873377,17.0702922 56.1428572,17.022078 Z M48.7662339,16.6597403 C50.3782468,16.6597403 51.8762987,17.1545456 53.1189935,17.9987014 L34.3584416,35.2623379 C33.351948,36.1558444 31.8376624,36.1545456 30.8545456,35.2766236 L12.0853897,17.9909091 C13.3261365,17.1509741 14.8209416,16.6597403 16.4285713,16.6597403 L48.7662339,16.6597403 Z M8.65974026,24.4285713 C8.65974026,22.7133115 9.23652595,21.1407467 10.1819806,19.853896 L23.9261366,32.5108765 L9.65990287,44.6047077 C9.04220772,43.4982143 8.65974026,42.2430195 8.65974026,40.8883117 L8.65974026,24.4285713 Z M16.3480519,48.5766234 C14.4248377,48.5766234 12.6855518,47.8417207 11.3358768,46.6701298 L25.8974028,34.3261364 L29.0688313,37.2467533 C30.0727274,38.1428573 31.3311689,38.5909092 32.5935066,38.5909092 C33.8584416,38.5909092 35.1272728,38.1389611 36.1428574,37.2337663 L39.3012989,34.3271104 L53.861364,46.6680196 C52.5113636,47.8409092 50.7711038,48.5766234 48.8467532,48.5766234 L16.3480519,48.5766234 Z M56.5350649,40.8883117 C56.5350649,42.2417208 56.1530845,43.4959415 55.5363636,44.6017857 L41.2732141,32.5125 L55.0194803,19.862013 C55.961039,21.1472402 56.5350649,22.7170455 56.5350649,24.4285713 L56.5350649,40.8883117 Z" id="Shape" fill="#444444"></path>
    </g>
</svg>