<?xml version="1.0" encoding="UTF-8"?>
<svg width="65px" height="65px" viewBox="0 0 65 65" version="1.1" xmlns="http://www.w3.org/2000/svg" xmlns:xlink="http://www.w3.org/1999/xlink">
    <!-- Generator: Sketch 60.1 (88133) - https://sketch.com -->
    <title>str-file</title>
    <desc>Created with Sketch.</desc>
    <g id="str-file" stroke="none" stroke-width="1" fill="none" fill-rule="evenodd">
        <path d="M50.7808443,22.686039 L37.6800327,9.58522744 C37.4396103,9.24009741 37.0595778,9 36.6077922,9 C36.6051947,9 36.6038962,9 36.6012987,9 C36.5913962,9 36.5832792,9.00551949 36.5733768,9.00584425 C36.5633118,9.00568174 36.5542208,9 36.5441558,9 L15.3298701,9 C14.5948052,9 14,9.59480516 14,10.3298701 L14,55.5454545 C14,56.2805195 14.5948052,56.8753247 15.3298701,56.8753247 L49.9064935,56.8753247 C50.2597403,56.8753247 50.5974025,56.7350649 50.8467532,56.4857142 C51.0961038,56.2363636 51.2363724,55.8974025 51.2363724,55.5441558 L51.2142857,23.7814935 C51.2175324,23.7441558 51.2363724,23.7121753 51.2363724,23.6740259 C51.2378246,23.2771104 51.0564934,22.9306819 50.7808443,22.686039 Z M46.6637988,22.3300325 L37.9948053,22.3025976 L37.9534091,13.619643 L46.6637988,22.3300325 Z M16.6597403,54.2155844 L16.6597403,11.6597403 L35.2842533,11.6597403 L35.3415585,23.6350649 C35.3454545,24.3649351 35.9363637,24.9558441 36.6675324,24.9584416 L48.5550324,24.9957793 L48.5753246,54.2155844 L16.6597403,54.2155844 Z" id="Shape" fill="#444444"></path>
    </g>
</svg>