<?xml version="1.0" encoding="UTF-8"?>
<svg width="65px" height="65px" viewBox="0 0 65 65" version="1.1" xmlns="http://www.w3.org/2000/svg" xmlns:xlink="http://www.w3.org/1999/xlink">
    <!-- Generator: Sketch 60.1 (88133) - https://sketch.com -->
    <title>str-circle-help</title>
    <desc>Created with Sketch.</desc>
    <g id="str-circle-help" stroke="none" stroke-width="1" fill="none" fill-rule="evenodd">
        <path d="M32.5974026,6 C47.2636365,6 59.1948052,17.9311687 59.1948052,32.5974026 C59.1948052,47.2636365 47.2636365,59.1948052 32.5974026,59.1948052 C17.9311687,59.1948052 6,47.2636365 6,32.5974026 C6,17.9311687 17.9311687,6 32.5974026,6 Z M32.5974026,8.65974026 C19.3987014,8.65974026 8.65974026,19.3987014 8.65974026,32.5974026 C8.65974026,45.7961038 19.3987014,56.5350649 32.5974026,56.5350649 C45.7961038,56.5350649 56.5350649,45.7961038 56.5350649,32.5974026 C56.5350649,19.3987014 45.7961038,8.65974026 32.5974026,8.65974026 Z M32.5974026,43.2363636 C33.3324676,43.2363636 33.9272727,43.8311688 33.9272727,44.5662338 L33.9272727,44.5662338 L33.9272727,47.225974 C33.9272727,47.961039 33.3324676,48.5558442 32.5974026,48.5558442 C31.8623376,48.5558442 31.2675325,47.961039 31.2675325,47.225974 L31.2675325,47.225974 L31.2675325,44.5662338 C31.2675325,43.8311688 31.8623376,43.2363636 32.5974026,43.2363636 Z M26.6142858,18.6415585 C28.725974,16.8675325 31.5168831,16.1285715 34.274026,16.6116883 C38.022078,17.2688312 41.0999999,20.3467533 41.7597402,24.0974025 C42.4545455,28.055844 40.5753246,32.0077922 37.0844155,33.9311687 C35.1077923,35.0207792 33.9272727,36.8571426 33.9272727,38.8415583 L33.9272727,38.8415583 L33.9272727,39.5077921 C33.9272727,40.2428571 33.3324676,40.8376623 32.5974026,40.8376623 C31.8623376,40.8376623 31.2675325,40.2428571 31.2675325,39.5077921 L31.2675325,39.5077921 L31.2675325,38.8415583 C31.2675325,35.8727272 32.9623376,33.1662338 35.8012986,31.6012988 C38.3350648,30.205195 39.6454544,27.4402599 39.1389609,24.5571429 C38.6714286,21.8896104 36.4818181,19.6987015 33.8142856,19.2324676 C31.8103897,18.8805196 29.857143,19.3948052 28.3246754,20.6792209 C26.8142857,21.9467533 25.9480519,23.803896 25.9480519,25.7740259 C25.9480519,26.5090909 25.3532468,27.1038961 24.6181818,27.1038961 C23.8831168,27.1038961 23.2883117,26.5090909 23.2883117,25.7740259 C23.2883117,23.0168831 24.5,20.4168832 26.6142858,18.6415585 Z" id="Combined-Shape" fill="#444444"></path>
    </g>
</svg>