<?xml version="1.0" encoding="UTF-8"?>
<svg width="65px" height="65px" viewBox="0 0 65 65" version="1.1" xmlns="http://www.w3.org/2000/svg" xmlns:xlink="http://www.w3.org/1999/xlink">
    <!-- Generator: Sketch 60.1 (88133) - https://sketch.com -->
    <title>str-bank-branch</title>
    <desc>Created with Sketch.</desc>
    <g id="str-bank-branch" stroke="none" stroke-width="1" fill="none" fill-rule="evenodd">
        <path d="M32.4405843,54.602922 C45.3863636,54.602922 55.8811688,48.911039 55.8811688,41.8899349 C55.8811688,36.842857 50.4582792,32.4826296 42.6001622,30.42987 C42.5303571,28.8225648 42.0805195,27.2280843 41.2483767,25.7868505 L33.9084415,13.0737012 C33.3488635,12.1042205 32.9621753,11.0652595 32.7474026,10 L32.4405845,10.5311687 C30.6238639,13.6777596 30.6238639,17.5545454 32.4404223,20.7012987 L38.3125003,30.8719157 C40.129221,34.018669 40.129221,37.895617 38.3125003,41.0423701 L38.0056822,41.5737014 C37.7909095,40.5082794 37.4042211,39.4694806 36.8446434,38.5 L31.4688317,29.1889613 L28.0365265,23.2439936 C27.4769485,22.274513 27.0902603,21.235552 26.8754877,20.1702925 L26.5686688,20.7016232 C24.7581168,23.837662 24.7524351,27.6988633 26.5508116,30.8397724 L26.5503246,30.8400974 L32.4405843,41.0423701 C34.257305,44.1891234 34.257305,48.065909 32.4405843,51.2128245 L32.1339285,51.7439933 C31.9189935,50.6787335 31.5324673,49.6397725 30.9727271,48.6702921 L23.6327922,35.9571427 C22.6483766,34.2521104 22.1985389,32.3326298 22.2810066,30.4311688 C14.4233766,32.4840909 9,36.8430195 9,41.8899349 C9,48.911039 19.494805,54.602922 32.4405843,54.602922 Z" id="Path" fill="#444444"></path>
    </g>
</svg>