<?xml version="1.0" encoding="UTF-8"?>
<svg width="65px" height="65px" viewBox="0 0 65 65" version="1.1" xmlns="http://www.w3.org/2000/svg" xmlns:xlink="http://www.w3.org/1999/xlink">
    <!-- Generator: Sketch 60.1 (88133) - https://sketch.com -->
    <title>str-pdf</title>
    <desc>Created with Sketch.</desc>
    <g id="str-pdf" stroke="none" stroke-width="1" fill="none" fill-rule="evenodd">
        <path d="M36.8649351,7 C36.8750001,7 36.8839285,7.00568174 36.8939935,7.00584425 C36.9038963,7.00551949 36.9121755,7 36.922078,7 L36.922078,7 C37.3780843,7 37.7573053,7.23912342 37.9978895,7.58230518 L37.9978895,7.58230518 L51.1025973,20.687013 C51.3758117,20.9306819 51.5558442,21.2753247 51.5558442,21.6701299 L51.5558442,21.6701299 L51.5558442,28.2779221 L51.5896104,28.2779221 C54.503896,28.2779221 56.8753247,30.6493507 56.8753247,33.5636364 L56.8753247,33.5636364 L56.8753247,44.2701298 C56.8753247,47.1844155 54.503896,49.5558442 51.5896104,49.5558442 L51.5896104,49.5558442 L51.5558442,49.5558442 L51.5558442,56.2051948 C51.5558442,56.9402598 50.961039,57.5350649 50.225974,57.5350649 L50.225974,57.5350649 L15.6493506,57.5350649 C14.9142857,57.5350649 14.3194805,56.9402598 14.3194805,56.2051948 L14.3194805,56.2051948 L14.3194805,49.5558442 L14.2857143,49.5558442 C11.3714287,49.5558442 9,47.1844155 9,44.2701298 L9,44.2701298 L9,33.5636364 C9,30.6493507 11.3714287,28.2779221 14.2857143,28.2779221 L14.2857143,28.2779221 L14.3194805,28.2779221 L14.3194805,8.32987013 C14.3194805,7.59480516 14.9142857,7 15.6493506,7 L15.6493506,7 Z M48.8961039,49.5558442 L16.9792208,49.5558442 L16.9792208,54.8753247 L48.8961039,54.8753247 L48.8961039,49.5558442 Z M51.5896104,30.9376623 L14.2857143,30.9376623 C12.8389611,30.9376623 11.6597403,32.1168832 11.6597403,33.5636364 L11.6597403,33.5636364 L11.6597403,44.2701298 C11.6597403,45.7168831 12.8389611,46.8961039 14.2857143,46.8961039 L14.2857143,46.8961039 L51.5896104,46.8961039 C53.0363636,46.8961039 54.2155844,45.7168831 54.2155844,44.2701298 L54.2155844,44.2701298 L54.2155844,33.5636364 C54.2155844,32.1168832 53.0363636,30.9376623 51.5896104,30.9376623 L51.5896104,30.9376623 Z M23.5597403,33.6272728 C25.0636364,33.6272728 26.1493506,33.9467534 26.8116882,34.5909092 C27.474026,35.2324675 27.8038961,36.0766234 27.8038961,37.1233766 C27.8038961,37.8610391 27.6480518,38.5025975 27.3337662,39.0506494 C27.0194807,39.5987014 26.5571431,40.0246756 25.9441559,40.3285716 C25.3311688,40.6324677 24.5909091,40.7857145 23.725974,40.7857145 L23.725974,40.7857145 L22.6038961,40.7857145 L22.6038961,44.2220782 L20.6610388,44.2220782 L20.6610388,33.879221 C21.068831,33.8116886 21.5441559,33.7519481 22.0818181,33.7000002 C22.6194806,33.6506495 23.1129869,33.6272728 23.5597403,33.6272728 Z M32.2714285,33.6116883 C34.0662337,33.6116883 35.3857144,34.0896104 36.2324677,35.0454546 C37.079221,36.0012987 37.5025977,37.3025974 37.5025977,38.9467533 C37.5025977,40.0636365 37.3077925,41.0142859 36.9207795,41.8012988 C36.531169,42.5883117 35.9545456,43.1883119 35.1857144,43.6012988 C34.4194805,44.0142857 33.4688314,44.2220779 32.3311689,44.2220779 L32.3311689,44.2220779 L29.2532468,44.2220779 L29.2532468,33.8948052 C30.120779,33.7051947 31.1259739,33.6116883 32.2714285,33.6116883 Z M45.2142858,33.8792207 C45.2142858,34.1285713 45.2012989,34.4116882 45.1701299,34.725974 C45.1415584,35.0376623 45.1,35.3103897 45.0506493,35.5389611 L45.0506493,35.5389611 L41.1051949,35.5389611 L41.1051949,38.2142859 L44.8402599,38.2142859 C44.8402599,38.4532468 44.8272729,38.7363636 44.7961039,39.0584417 C44.7675325,39.383117 44.725974,39.6584416 44.6766233,39.887013 L44.6766233,39.887013 L41.1051949,39.887013 L41.1051949,44.2220779 L39.1623376,44.2220779 L39.1623376,33.8792207 Z M32.287013,35.2844155 C31.8896106,35.2844155 31.5259741,35.3051947 31.196104,35.3441556 L31.196104,35.3441556 L31.196104,42.5493505 L32.3779221,42.5493505 C33.4428571,42.5493505 34.2246753,42.2532467 34.7233766,41.6584415 C35.2220779,41.0662338 35.4714288,40.1623376 35.4714288,38.9467531 C35.4714288,37.7415583 35.2142859,36.82987 34.7000001,36.2116882 C34.1883118,35.5935063 33.383117,35.2844155 32.287013,35.2844155 Z M23.6064935,35.2246756 C23.2662337,35.2246756 22.9337662,35.2454548 22.6038961,35.2844157 L22.6038961,35.2844157 L22.6038961,39.2012987 L23.7103896,39.2012987 C24.3961038,39.2012987 24.9181819,39.0246752 25.2714286,38.6714285 C25.6246754,38.3155845 25.8012986,37.8246754 25.8012986,37.1987015 C25.8012986,35.8818184 25.0688312,35.2246756 23.6064935,35.2246756 Z M35.6035713,9.65974026 L16.9792208,9.65974026 L16.9792208,28.2779221 L48.8961039,28.2779221 L48.8961039,22.9948053 L36.9844157,22.9584416 C36.2545454,22.9558441 35.6623378,22.3662339 35.6597403,21.6337662 L35.6597403,21.6337662 L35.6035713,9.65974026 Z M38.2728896,11.6183443 L38.3142858,20.3038963 L46.9849026,20.3303573 L38.2728896,11.6183443 Z" id="Combined-Shape" fill="#444444"></path>
    </g>
</svg>