<?xml version="1.0" encoding="UTF-8"?>
<svg width="65px" height="65px" viewBox="0 0 65 65" version="1.1" xmlns="http://www.w3.org/2000/svg" xmlns:xlink="http://www.w3.org/1999/xlink">
    <!-- Generator: Sketch 60.1 (88133) - https://sketch.com -->
    <title>str-phone</title>
    <desc>Created with Sketch.</desc>
    <g id="str-phone" stroke="none" stroke-width="1" fill="none" fill-rule="evenodd">
        <path d="M40.7541496,38.2030496 C41.8410768,35.6118392 44.7823739,34.3397282 47.4165755,35.3208035 L52.2479495,37.117114 C54.3030861,37.8791646 55.6666667,39.8410772 55.6666667,42.033 L55.6666667,49.5673333 C55.6666667,52.9367246 52.9349403,55.6666667 49.565,55.6666667 C27.1607963,55.6666667 9,37.5051274 9,15.1016667 C9,11.7317264 11.7299421,9 15.0993333,9 L22.6336667,9 C24.8234465,9 26.7834247,10.3636863 27.5490239,12.417294 L29.3483759,17.2505742 C30.3265158,19.8849508 29.0546377,22.8226677 26.4645472,23.9121265 L21.3634613,26.0570523 C24.8612606,32.4386635 32.2544836,39.8387563 38.6106126,43.3053513 L40.7541496,38.2030496 Z M38.6836121,45.96648 L38.5524349,45.9020401 C31.1686999,42.2908758 22.2868546,33.3779543 18.6976845,25.9802627 C18.4056909,25.3784302 18.678488,24.654824 19.2951195,24.3955402 L25.5599902,21.7612613 C26.9977734,21.1564927 27.7039956,19.5252978 27.1613094,18.063706 L25.3624965,13.2318748 C24.9371278,12.090886 23.8483241,11.3333333 22.6336667,11.3333333 L15.0993333,11.3333333 C13.0189479,11.3333333 11.3333333,13.0200496 11.3333333,15.1016667 C11.3333333,36.2164844 28.4494821,53.3333333 49.565,53.3333333 C51.646617,53.3333333 53.3333333,51.6477187 53.3333333,49.5673333 L53.3333333,42.033 C53.3333333,40.8164194 52.5765274,39.727531 51.4357578,39.3045298 L46.6028133,37.5076357 C45.1407276,36.9631004 43.5084359,37.6690666 42.9056029,39.1062067 L40.2736029,45.3712067 C40.0135847,45.9901329 39.286164,46.2624704 38.6836121,45.96648 Z" id="🌈-Color" fill="#444444"></path>
    </g>
</svg>