<?xml version="1.0" encoding="UTF-8"?>
<svg width="65px" height="65px" viewBox="0 0 65 65" version="1.1" xmlns="http://www.w3.org/2000/svg" xmlns:xlink="http://www.w3.org/1999/xlink">
    <!-- Generator: Sketch 57.1 (83088) - https://sketch.com -->
    <title>str-plane</title>
    <desc>Created with Sketch.</desc>
    <g id="str-plane" stroke="none" stroke-width="1" fill="none" fill-rule="evenodd">
        <path d="M56.2694849,46.4971983 L45.3276348,25.6257982 L51.9526349,14.3208982 C53.4883331,11.6849242 52.6032613,8.30340483 49.9730849,6.75779814 C48.7078308,6.01661161 47.1998391,5.80877738 45.7812607,6.18007313 C44.3626823,6.55136888 43.1498794,7.4713382 42.4099848,8.73734815 L35.7876348,20.0422482 L12.2317847,20.7312482 C11.9108599,20.7410757 11.6175462,20.915262 11.4553347,21.1923482 L8.13488469,26.8633482 C7.9791662,27.12051 7.95693549,27.4369592 8.07517048,27.7133663 C8.19340548,27.9897735 8.43761126,28.1922527 8.73113469,28.2572482 L28.3411348,32.7781482 L22.8503348,42.1564983 L16.9726347,42.8322483 C16.6803647,42.8646865 16.420793,43.0338014 16.2730347,43.2880483 L13.6230347,47.7930483 C13.4760554,48.045814 13.4557189,48.3527653 13.5680668,48.6227123 C13.6804147,48.8926592 13.9125224,49.094547 14.1954347,49.1683983 L23.7115848,51.6116983 L30.4982348,58.7083984 C30.6738334,58.8924284 30.9169695,58.9972484 31.1713348,58.9972484 L31.2799848,58.9972484 C31.5707029,58.9624062 31.8284804,58.7938217 31.9769348,58.5414484 L34.6269348,54.0364483 C34.7757537,53.7834041 34.7963824,53.4749561 34.6825848,53.2043483 L32.3903348,47.7532983 L37.8864348,38.3590483 L51.4358849,53.2414483 C51.6350103,53.4619008 51.9274584,53.5739791 52.2229155,53.5430714 C52.5183726,53.5121636 52.7812942,53.3419881 52.9304849,53.0850983 L56.2482849,47.4140983 C56.4149718,47.1331344 56.423008,46.7855659 56.2694849,46.4971983 Z M51.9605849,51.0472483 L38.4111348,36.1542483 C38.2114444,35.9348886 37.9193245,35.823586 37.624295,35.854449 C37.3292655,35.885312 37.0665045,36.0546607 36.9165348,36.3105983 L30.5565348,47.1994483 C30.4077159,47.4524926 30.3870872,47.7609405 30.5008848,48.0315483 L32.7931348,53.4852483 L31.0123348,56.5274483 L24.8855348,50.1303483 C24.7663222,50.0016017 24.6127631,49.9096501 24.4429848,49.8653483 L15.8675847,47.6658483 L17.6483847,44.6236483 L23.5234348,43.9505483 C23.8155583,43.9177018 24.0749621,43.7486962 24.2230348,43.4947483 L30.5830348,32.6058982 C30.7336362,32.3503505 30.753324,32.0382976 30.6360348,31.7658482 C30.514824,31.4981077 30.2757578,31.3021519 29.9894348,31.2358482 L10.3794347,26.7308482 L12.7962347,22.5994982 L36.3573848,21.8972482 C36.6795553,21.8893382 36.9745273,21.714763 37.1364848,21.4361482 L44.0264848,9.68604815 C45.0472338,7.94844154 47.2819869,7.3651532 49.0217349,8.38224814 C50.7699364,9.39998726 51.3629756,11.6416751 50.3467349,13.3907482 L43.4567348,25.1434982 C43.2947821,25.4212627 43.2877676,25.7629714 43.4381848,26.0471482 L54.3773849,46.9185483 L51.9605849,51.0472483 Z" id="Shape" fill="#4D4C4C" fill-rule="nonzero"></path>
    </g>
</svg>