<?xml version="1.0" encoding="UTF-8"?>
<svg width="65px" height="65px" viewBox="0 0 65 65" version="1.1" xmlns="http://www.w3.org/2000/svg" xmlns:xlink="http://www.w3.org/1999/xlink">
    <!-- Generator: Sketch 60.1 (88133) - https://sketch.com -->
    <title>str-print</title>
    <desc>Created with Sketch.</desc>
    <g id="str-print" stroke="none" stroke-width="1" fill="none" fill-rule="evenodd">
        <path d="M49.8857143,37.5974026 C50.6207793,37.5974026 51.2155844,38.1922078 51.2155844,38.9272727 C51.2155844,39.6623377 50.6207793,40.2571429 49.8857143,40.2571429 L49.8857143,40.2571429 L48.5558442,40.2571429 L48.5558442,48.3428572 C48.5558442,51.218182 46.218182,53.5558442 43.3428572,53.5558442 L43.3428572,53.5558442 L21.857143,53.5558442 C18.9792208,53.5558442 16.638961,51.2155844 16.638961,48.3376622 L16.638961,48.3376622 L16.638961,40.2571429 L15.3090909,40.2571429 C14.5740259,40.2571429 13.9792208,39.6623377 13.9792208,38.9272727 C13.9792208,38.1922078 14.5740259,37.5974026 15.3090909,37.5974026 L15.3090909,37.5974026 Z M45.8961039,40.2571429 L19.2987013,40.2571429 L19.2987013,48.3376622 C19.2987013,49.748052 20.4467532,50.8961039 21.857143,50.8961039 L21.857143,50.8961039 L43.3428572,50.8961039 C44.7506493,50.8961039 45.8961039,49.7506493 45.8961039,48.3428572 L45.8961039,48.3428572 L45.8961039,40.2571429 Z M43.3376622,11 C46.2155844,11 48.5558442,13.3415585 48.5558442,16.2194804 L48.5558442,16.2194804 L48.5558442,21.638961 L48.6727272,21.638961 C54.4753246,21.638961 59.1948052,26.3597401 59.1948052,32.161039 L59.1948052,32.161039 L59.1948052,43.0181817 C59.1948052,45.8961039 56.8545455,48.2363636 53.9766233,48.2363636 L53.9766233,48.2363636 L52.5454545,48.2363636 C51.8103896,48.2363636 51.2155844,47.6415585 51.2155844,46.9064935 C51.2155844,46.1714285 51.8103896,45.5766234 52.5454545,45.5766234 L52.5454545,45.5766234 L53.9766233,45.5766234 C55.3870131,45.5766234 56.5350649,44.4285715 56.5350649,43.0181817 L56.5350649,43.0181817 L56.5350649,32.161039 C56.5350649,27.8259741 53.0077921,24.2987013 48.6727272,24.2987013 L48.6727272,24.2987013 L16.5298702,24.2987013 C12.1896103,24.2987013 8.65974026,27.8285713 8.65974026,32.1675325 L8.65974026,32.1675325 L8.65974026,43.0233767 C8.65974026,44.4311687 9.8051949,45.5766234 11.2129869,45.5766234 L11.2129869,45.5766234 L12.6493506,45.5766234 C13.3844156,45.5766234 13.9792208,46.1714285 13.9792208,46.9064935 C13.9792208,47.6415585 13.3844156,48.2363636 12.6493506,48.2363636 L12.6493506,48.2363636 L11.2129869,48.2363636 C8.3376622,48.2363636 6,45.8987014 6,43.0233767 L6,43.0233767 L6,32.1675325 C6,26.3623376 10.7246754,21.638961 16.5298702,21.638961 L16.5298702,21.638961 L16.638961,21.638961 L16.638961,16.2129869 C16.638961,13.338961 18.9766232,11 21.851948,11 L21.851948,11 Z M49.8857143,29.6181818 C50.6207793,29.6181818 51.2155844,30.212987 51.2155844,30.9480519 C51.2155844,31.6831169 50.6207793,32.2779221 49.8857143,32.2779221 L49.8857143,32.2779221 L44.5662338,32.2779221 C43.8311688,32.2779221 43.2363636,31.6831169 43.2363636,30.9480519 C43.2363636,30.212987 43.8311688,29.6181818 44.5662338,29.6181818 L44.5662338,29.6181818 Z M43.3376622,13.6597403 L21.851948,13.6597403 C20.4441559,13.6597403 19.2987013,14.8051949 19.2987013,16.2129869 L19.2987013,16.2129869 L19.2987013,21.638961 L45.8961039,21.638961 L45.8961039,16.2194804 C45.8961039,14.8077921 44.748052,13.6597403 43.3376622,13.6597403 L43.3376622,13.6597403 Z" id="Combined-Shape" fill="#444444"></path>
    </g>
</svg>