<?xml version="1.0" encoding="UTF-8"?>
<svg width="65px" height="65px" viewBox="0 0 65 65" version="1.1" xmlns="http://www.w3.org/2000/svg" xmlns:xlink="http://www.w3.org/1999/xlink">
    <!-- Generator: Sketch 60.1 (88133) - https://sketch.com -->
    <title>str-search</title>
    <desc>Created with Sketch.</desc>
    <g id="str-search" stroke="none" stroke-width="1" fill="none" fill-rule="evenodd">
        <path d="M26.2883117,9 C16.7558441,9 9,16.7558441 9,26.2883117 C9,35.8207793 16.7558441,43.5766234 26.2883117,43.5766234 C29.1189935,43.5766234 31.7853897,42.8793831 34.1461039,41.6681818 L47.7272728,55.251948 C48.7636363,56.2883115 50.1272729,56.8051948 51.4883118,56.8051948 C52.8519481,56.8051948 54.2155844,56.2883118 55.2519482,55.251948 C57.3246756,53.1766234 57.3246756,49.8025974 55.2519482,47.7272725 L41.6681821,34.1461036 C42.8793831,31.7853897 43.5766234,29.1189935 43.5766234,26.2883117 C43.5766234,16.7558441 35.8207793,9 26.2883117,9 Z M11.6597403,26.2883117 C11.6597403,18.2233765 18.222078,11.6597403 26.2883117,11.6597403 C34.3545453,11.6597403 40.9168831,18.2233765 40.9168831,26.2883117 C40.9168831,34.3532469 34.3545453,40.9168831 26.2883117,40.9168831 C18.222078,40.9168831 11.6597403,34.3532469 11.6597403,26.2883117 Z M53.3714286,49.6077921 C54.4077921,50.6441557 54.4077921,52.3350648 53.3714286,53.3714286 C52.3350651,54.4025974 50.6493507,54.4077921 49.6077921,53.3714286 L36.4686689,40.2298701 C37.9081168,39.1758116 39.1758118,37.9081168 40.2298701,36.4686689 L53.3714286,49.6077921 Z" id="Shape" fill="#444444"></path>
    </g>
</svg>