<?xml version="1.0" encoding="UTF-8"?>
<svg width="65px" height="65px" viewBox="0 0 65 65" version="1.1" xmlns="http://www.w3.org/2000/svg" xmlns:xlink="http://www.w3.org/1999/xlink">
    <!-- Generator: Sketch 60.1 (88133) - https://sketch.com -->
    <title>str-tick.in-a-circle</title>
    <desc>Created with Sketch.</desc>
    <g id="str-tick.in-a-circle" stroke="none" stroke-width="1" fill="none" fill-rule="evenodd">
        <path d="M32.5,6 C47.1121,6 59,17.8879 59,32.5 C59,47.1121 47.1121,59 32.5,59 C17.8879,59 6,47.1121 6,32.5 C6,17.8879 17.8879,6 32.5,6 Z M32.5,8.65 C19.34805,8.65 8.65,19.34805 8.65,32.5 C8.65,45.65195 19.34805,56.35 32.5,56.35 C45.65195,56.35 56.35,45.65195 56.35,32.5 C56.35,19.34805 45.65195,8.65 32.5,8.65 Z M43.10371,19.859765 C43.49856,19.239665 44.31741,19.070065 44.93486,19.456965 C45.54966,19.851815 45.73251,20.670665 45.33766,21.288115 L45.33766,21.288115 L31.68221,42.676265 C31.46226,43.018115 31.09921,43.240715 30.69641,43.277815 C30.65136,43.283115 30.60896,43.285765 30.56391,43.285765 C30.20616,43.285765 29.86166,43.142665 29.60991,42.880315 L29.60991,42.880315 L19.61941,32.502915 C19.11326,31.975565 19.12916,31.135515 19.65651,30.629365 C20.18121,30.125865 21.02126,30.139115 21.53006,30.663815 L21.53006,30.663815 L30.35191,39.830165 Z" id="🌈-Color" fill="#444444"></path>
    </g>
</svg>