<?xml version="1.0" encoding="UTF-8"?>
<svg width="65px" height="65px" viewBox="0 0 65 65" version="1.1" xmlns="http://www.w3.org/2000/svg" xmlns:xlink="http://www.w3.org/1999/xlink">
    <!-- Generator: Sketch 60.1 (88133) - https://sketch.com -->
    <title>str-delete</title>
    <desc>Created with Sketch.</desc>
    <g id="str-delete" stroke="none" stroke-width="1" fill="none" fill-rule="evenodd">
        <path d="M37.6038961,9 C40.5337662,9 42.9168831,11.3831169 42.9168831,14.312987 L42.9168831,14.312987 L42.9168831,16.9792208 L49.5275973,16.9792208 C49.5412338,16.9787338 49.552435,16.9714285 49.5662338,16.9714285 L49.5662338,16.9714285 L49.6048702,16.9792208 L52.225974,16.9792208 C52.961039,16.9792208 53.5558442,17.5740259 53.5558442,18.3090909 C53.5558442,19.0441559 52.961039,19.638961 52.225974,19.638961 L52.225974,19.638961 L50.8961039,19.638961 L50.8961039,46.3012988 C50.8961039,52.1272729 46.1558441,56.8675324 40.3285712,56.8675324 L40.3285712,56.8675324 L24.2272726,56.8675324 C18.4000001,56.8675324 13.6597403,52.1272729 13.6597403,46.3012988 L13.6597403,46.3012988 L13.6597403,19.638961 L12.3298701,19.638961 C11.5948052,19.638961 11,19.0441559 11,18.3090909 C11,17.5740259 11.5948052,16.9792208 12.3298701,16.9792208 L12.3298701,16.9792208 L14.9509739,16.9792208 C14.9646104,16.9787338 14.9758117,16.9714285 14.9896104,16.9714285 C15.0034091,16.9714285 15.0146104,16.9787338 15.0282468,16.9792208 L15.0282468,16.9792208 L21.638961,16.9792208 L21.638961,14.312987 C21.638961,11.3831169 24.0220779,9 26.9519481,9 L26.9519481,9 Z M48.2363636,19.638961 L16.3194805,19.638961 L16.3194805,46.3012988 C16.3194805,50.6610389 19.8675325,54.2077922 24.2272726,54.2077922 L24.2272726,54.2077922 L40.3285715,54.2077922 C44.6883116,54.2077922 48.2363636,50.6610389 48.2363636,46.3012988 L48.2363636,46.3012988 L48.2363636,19.638961 Z M22.9688312,24.9584416 C23.7038961,24.9584416 24.2987013,25.5532467 24.2987013,26.2883117 L24.2987013,26.2883117 L24.2987013,47.5662338 C24.2987013,48.3012987 23.7038961,48.8961039 22.9688312,48.8961039 C22.2337662,48.8961039 21.638961,48.3012987 21.638961,47.5662338 L21.638961,47.5662338 L21.638961,26.2883117 C21.638961,25.5532467 22.2337662,24.9584416 22.9688312,24.9584416 Z M32.2779221,24.9584416 C33.012987,24.9584416 33.6077922,25.5532467 33.6077922,26.2883117 L33.6077922,26.2883117 L33.6077922,47.5662338 C33.6077922,48.3012987 33.012987,48.8961039 32.2779221,48.8961039 C31.5428571,48.8961039 30.9480519,48.3012987 30.9480519,47.5662338 L30.9480519,47.5662338 L30.9480519,26.2883117 C30.9480519,25.5532467 31.5428571,24.9584416 32.2779221,24.9584416 Z M41.587013,24.9584416 C42.322078,24.9584416 42.9168831,25.5532467 42.9168831,26.2883117 L42.9168831,26.2883117 L42.9168831,47.5662338 C42.9168831,48.3012987 42.322078,48.8961039 41.587013,48.8961039 C40.851948,48.8961039 40.2571429,48.3012987 40.2571429,47.5662338 L40.2571429,47.5662338 L40.2571429,26.2883117 C40.2571429,25.5532467 40.851948,24.9584416 41.587013,24.9584416 Z M37.6038961,11.6597403 L26.9519481,11.6597403 C25.4883116,11.6597403 24.2987013,12.8493506 24.2987013,14.312987 L24.2987013,14.312987 L24.2987013,16.9792208 L40.2571429,16.9792208 L40.2571429,14.312987 C40.2571429,12.8493506 39.0675325,11.6597403 37.6038961,11.6597403 L37.6038961,11.6597403 Z" id="Combined-Shape" fill="#444444"></path>
    </g>
</svg>