<?xml version="1.0" encoding="UTF-8"?>
<svg width="65px" height="65px" viewBox="0 0 65 65" version="1.1" xmlns="http://www.w3.org/2000/svg" xmlns:xlink="http://www.w3.org/1999/xlink">
    <!-- Generator: Sketch 60.1 (88133) - https://sketch.com -->
    <title>str-personal-area</title>
    <desc>Created with Sketch.</desc>
    <g id="str-personal-area" stroke="none" stroke-width="1" fill="none" fill-rule="evenodd">
        <path d="M44.1922075,42.4168831 C51.5532464,42.4168831 56.8961036,45.8857145 56.8961036,50.666234 L56.8961036,50.666234 L56.8961036,52.5402599 C56.8961036,54.9961042 54.8974022,56.9948054 52.4415581,56.9948054 L52.4415581,56.9948054 L13.4532465,56.9896106 C10.9974024,56.9896106 9,54.9909092 9,52.5350649 L9,52.5350649 L9,50.6597403 C9,46.1142856 14.6948052,42.4168831 21.6961039,42.4168831 C23.0272728,42.4168831 24.6337663,42.6909092 26.051948,42.9324676 L26.051948,42.9324676 L26.9441558,43.0818182 C28.0506492,43.2597402 29.1467532,43.4935063 30.2311686,43.7792207 L30.2311686,43.7792207 L30.7727271,43.925974 C31.5324673,44.1337662 32.2493503,44.3311689 32.9441556,44.3311689 C33.6090906,44.3311689 34.772727,44.0272728 35.7999995,43.7584417 L35.7999995,43.7584417 L36.9454542,43.4675326 C38.9493504,42.9883121 41.8324673,42.4168831 44.1922075,42.4168831 Z M44.1922075,45.0766234 C42.5532466,45.0766234 40.1999996,45.4233766 37.5636361,46.0545455 L37.5636361,46.0545455 L36.4727271,46.3324676 C35.2324673,46.6558441 33.9506492,46.9909092 32.9441556,46.9909092 C31.8909088,46.9909092 30.9636361,46.7363638 30.0688311,46.4896104 L30.0688311,46.4896104 L29.5558441,46.3519481 C28.5545452,46.0883117 27.5415584,45.8727272 26.5207791,45.7077922 L26.5207791,45.7077922 L25.6051946,45.5545454 C24.2909087,45.32987 22.8012983,45.0766234 21.6961036,45.0766234 C16.3493504,45.0766234 11.65974,47.6857142 11.65974,50.6597403 L11.65974,50.6597403 L11.65974,52.5350651 C11.65974,53.5246755 12.4649349,54.3298704 13.4532465,54.3298704 L13.4532465,54.3298704 L52.4415581,54.3350648 C53.4311685,54.3350648 54.2363634,53.52987 54.2363634,52.5402596 L54.2363634,52.5402596 L54.2363634,50.6662337 C54.2363634,47.4792207 49.9181814,45.0766234 44.1922075,45.0766234 Z M32.9363633,8 C36.4324672,8 39.9571424,9.59090927 42.1350646,12.1519482 C43.9337659,14.2662339 44.6870128,16.8909093 44.2558439,19.5415585 L44.2558439,19.5415585 L43.0142854,29.8857145 C42.220779,35.0883119 38.172727,38.5558443 32.9363633,38.5558443 C27.7077919,38.5558443 23.6675324,35.0883119 22.881818,29.9272729 L22.881818,29.9272729 L21.624675,19.4870131 C21.2012983,16.887013 21.9545453,14.2597405 23.7532465,12.1441559 C25.9272724,9.58831177 29.4454542,8 32.9363633,8 Z M32.9363633,10.6597403 C30.2038957,10.6597403 27.4623373,11.8883118 25.7792204,13.8675325 C24.8701297,14.9363638 23.8675321,16.7155845 24.2584413,19.1155846 L24.2584413,19.1155846 L25.5168828,29.5688314 C26.0999997,33.396104 29.0142853,35.896104 32.9363633,35.896104 C36.867532,35.896104 39.7883112,33.396104 40.3792203,29.527273 L40.3792203,29.527273 L41.6220776,19.1701301 C42.01948,16.7194805 41.0181815,14.9428572 40.1090905,13.8753247 C38.4233764,11.8922078 35.6740257,10.6597403 32.9363633,10.6597403 Z" id="Combined-Shape" fill="#444444"></path>
    </g>
</svg>